<?xml version="1.0" encoding="UTF-8" standalone="no"?>
<!DOCTYPE svg PUBLIC "-//W3C//DTD SVG 1.1//EN" "http://www.w3.org/Graphics/SVG/1.1/DTD/svg11.dtd">
<svg xmlns="http://www.w3.org/2000/svg" xmlns:xlink="http://www.w3.org/1999/xlink" version="1.1" width="592.393pt" height="148.756pt" viewBox="0 0 592.393 148.756">
<g enable-background="new">
<g id="Layer-1" data-name="Layer 1">
<path transform="matrix(1,0,0,-1,524.6532,.00039672853)" d="M 0 0 L 0 -101.608 L 17.998 -101.608 L 17.998 -71.364 L 44.368 -101.608 L 67.739 -101.608 L 67.739 -101.607 L 35.12 -64.114 L 65.49 -31.243 L 42.62 -31.243 L 17.998 -58.365 L 17.998 0 Z " fill="#ed1b2e"/>
<clipPath id="cp0">
<path transform="matrix(1,0,0,-1,0,148.756)" d="M 0 148.756 L 592.393 148.756 L 592.393 0 L 0 0 Z "/>
</clipPath>
<g clip-path="url(#cp0)">
<path transform="matrix(1,0,0,-1,486.7842,28.245697)" d="M 0 0 C -10.373 0 -16.997 -5.499 -20.246 -10.748 L -20.246 -3 L -38.243 -3 L -38.243 -73.363 L -20.246 -73.363 L -20.246 -30.37 C -20.246 -20.622 -15.497 -16.123 -7.248 -16.123 C .75 -16.123 5.375 -20.622 5.375 -30.37 L 5.375 -73.363 L 23.372 -73.363 L 23.372 -29.495 C 23.372 -10.248 15.248 0 0 0 " fill="#ed1b2e"/>
<path transform="matrix(1,0,0,-1,162.96,25.371193)" d="M 0 0 C 0 6.874 2.874 9.999 9.498 9.999 L 29.745 9.999 L 29.745 25.371 L 4.374 25.371 C -10.249 25.371 -17.997 17.748 -17.997 3.375 L -17.997 -10.248 L -34.12 -10.248 L -34.12 -26.496 L -17.997 -26.496 L -17.997 -76.238 L 0 -76.238 L 0 -26.496 L 17.622 -26.496 L 17.622 -10.248 L 0 -10.248 Z " fill="#ed1b2e"/>
<path transform="matrix(1,0,0,-1,0,148.756)" d="M 101.47 47.147 L 119.467 47.147 L 119.467 148.755 L 101.47 148.755 Z " fill="#ed1b2e"/>
<path transform="matrix(1,0,0,-1,0,148.756)" d="M 96.2 0 L 0 0 L 0 19.99 L 96.2 19.99 Z " fill="#ed1b2e"/>
<path transform="matrix(1,0,0,-1,34.3574,64.50359)" d="M 0 0 L 13.492 40.104 L 13.992 40.104 L 26.736 0 Z M 31.229 47.507 C 28.486 55.687 25.324 62.148 14.492 62.148 C 3.659 62.148 .295 55.713 -2.592 47.507 L -32.358 -37.105 L -12.619 -37.105 L -5.747 -16.991 L 32.232 -16.991 L 38.604 -37.105 L 59.594 -37.105 Z " fill="#ed1b2e"/>
<path transform="matrix(1,0,0,-1,414.7959,75.363399)" d="M 0 0 C 0 -8.124 -5.749 -12.748 -13.248 -12.748 C -19.747 -12.748 -24.871 -10.373 -24.871 -3.375 C -24.871 3.5 -19.247 4.625 -14.373 4.625 L 0 4.625 Z M 17.997 -4.624 L 17.997 18.997 C 17.997 36.245 6.999 47.118 -11.498 47.118 C -30.62 47.118 -40.744 35.62 -41.619 23.622 L -23.371 23.622 C -22.747 26.246 -19.997 30.746 -11.498 30.746 C -4.499 30.746 0 27.496 0 18.997 L -17.872 18.997 C -33.87 18.997 -43.368 10.624 -43.368 -3.375 C -43.368 -17.997 -32.979 -27.996 -17.997 -27.996 C -7.013 -27.996 -.914 -22.804 1.75 -18.872 C 4.124 -23.621 9.373 -26.246 16.247 -26.246 L 22.496 -26.246 L 22.496 -9.999 C 19.247 -9.999 17.997 -8.499 17.997 -4.624 " fill="#ed1b2e"/>
<path transform="matrix(1,0,0,-1,228.0742,75.363399)" d="M 0 0 C 0 -8.124 -5.749 -12.748 -13.247 -12.748 C -19.746 -12.748 -24.871 -10.373 -24.871 -3.375 C -24.871 3.5 -19.246 4.625 -14.372 4.625 L 0 4.625 Z M 17.998 -4.624 L 17.998 18.997 C 17.998 36.245 6.999 47.118 -11.498 47.118 C -30.62 47.118 -40.743 35.62 -41.618 23.622 L -23.371 23.622 C -22.746 26.246 -19.996 30.746 -11.498 30.746 C -4.499 30.746 0 27.496 0 18.997 L -17.872 18.997 C -33.869 18.997 -43.368 10.624 -43.368 -3.375 C -43.368 -17.997 -32.979 -27.996 -17.997 -27.996 C -7.013 -27.996 -.913 -22.804 1.75 -18.872 C 4.125 -23.621 9.374 -26.246 16.248 -26.246 L 22.497 -26.246 L 22.497 -9.999 C 19.247 -9.999 17.998 -8.499 17.998 -4.624 " fill="#ed1b2e"/>
<path transform="matrix(1,0,0,-1,326.8096,84.486499)" d="M 0 0 L -24.371 0 L -24.371 24.996 L 0 24.996 C 10.373 24.996 15.622 20.747 15.622 12.498 C 15.622 4.25 10.248 0 0 0 M -24.371 63.865 L 1.625 63.865 C 9.373 63.865 13.498 60.241 13.498 52.867 C 13.498 45.743 9.373 41.869 1.75 41.869 L -24.371 41.869 Z M 19.997 34.495 C 26.746 37.494 32.87 44.493 32.87 54.367 C 32.87 70.989 21.996 80.986 3.749 80.986 L -42.993 80.986 L -42.993 -17.122 L 2.125 -17.122 C 23.121 -17.122 34.994 -6.749 34.994 11.374 C 34.994 24.246 27.62 31.62 19.997 34.495 " fill="#ed1b2e"/>
</g>
</g>
</g>
</svg>
