<svg width="402" height="130" viewBox="0 0 402 130" fill="none" xmlns="http://www.w3.org/2000/svg">
<path d="M0 24C0 10.7452 10.7452 0 24 0H378C391.255 0 402 10.7452 402 24V106C402 119.255 391.255 130 378 130H24C10.7452 130 0 119.255 0 106V24Z" fill="#0C73FE"/>
<path d="M58.3529 68C57.6057 68 57 68.6057 57 69.3529V70.0485L57.0017 70.0823C57.1425 72.8981 59.2669 75.718 62.8815 75.996L62.9333 76H63.6471C64.3943 76 65 75.3943 65 74.6471C65 73.8998 64.3943 73.2941 63.6471 73.2941H63.0406C60.9629 73.1118 59.7986 71.5502 59.7059 69.9781V69.3529C59.7059 68.6057 59.1002 68 58.3529 68Z" fill="white"/>
<path fill-rule="evenodd" clip-rule="evenodd" d="M62.0633 46.1386C55.0704 46.4465 49.6643 52.1867 49.3133 59.1775C49.1372 62.6839 48.9999 65.819 48.9999 68.7333C48.9999 71.4516 49.1194 74.1732 49.2783 77.3013C49.6318 84.2575 55.0289 89.946 61.987 90.2579C63.0408 90.3052 64.0621 90.3333 64.9999 90.3333C65.9672 90.3333 67.023 90.3034 68.1118 90.2534C75.0247 89.9363 80.4017 84.3149 80.7425 77.4031C80.8909 74.394 80.9999 71.7049 80.9999 68.7333C80.9999 65.4143 80.8786 62.3525 80.7177 59.0451C80.3806 52.1121 74.9996 46.4591 68.0655 46.1444C66.9931 46.0957 65.9535 46.0666 64.9999 46.0666C64.0847 46.0666 63.09 46.0934 62.0633 46.1386ZM53.2021 59.9793C53.4672 54.6509 57.5131 50.2987 62.7246 50.0585C63.5205 50.0219 64.2919 50 65 50C65.7433 50 66.5565 50.0241 67.3945 50.0641C72.5514 50.3105 76.5708 54.5809 76.8203 59.8547C76.844 60.3573 76.8664 60.7858 76.8866 61.1741C76.9551 62.4905 77 63.353 77 65.1412C77 66.9053 76.951 67.9092 76.8773 69.4191C76.8654 69.6617 76.8529 69.9176 76.8399 70.1915C76.5902 75.4449 72.575 79.6853 67.438 79.9338C66.5847 79.9751 65.7562 80 65 80C64.2712 80 63.4752 79.9768 62.6546 79.9382C57.4751 79.6944 53.4379 75.3907 53.1746 70.0948C53.1574 69.7491 53.1411 69.4325 53.1257 69.136L53.1256 69.1337C53.0503 67.676 53 66.7033 53 65.1412C53 63.6408 53.0464 62.8167 53.1168 61.5655C53.1424 61.1109 53.1712 60.5996 53.2021 59.9793Z" fill="white"/>
<path fill-rule="evenodd" clip-rule="evenodd" d="M47.8346 30H82.1654C89.7004 30 91.6478 30.7818 93.5295 31.7882C95.561 32.8746 97.1254 34.439 98.2118 36.4705C99.2182 38.3522 100 40.2996 100 47.8346V49.0213C100 49.567 99.5625 50.0112 99.0174 50.0343C98.8496 50.0414 98.6799 50.0495 98.509 50.0585C93.949 50.2987 90.4088 54.6509 90.1768 59.9793C90.15 60.5957 90.1249 61.1051 90.1026 61.5575L90.1023 61.563L90.1022 61.5655C90.0406 62.8167 90 63.6408 90 65.1412C90 66.7033 90.044 67.6764 90.1099 69.1341C90.1234 69.4312 90.1377 69.7483 90.1528 70.0948C90.3831 75.3907 93.9158 79.6944 98.4478 79.9382C98.6394 79.9485 98.8295 79.9577 99.0174 79.9657C99.5625 79.9888 100 80.433 100 80.9787V82.1654C100 89.7004 99.2182 91.6478 98.2118 93.5295C97.1254 95.561 95.561 97.1254 93.5295 98.2118C91.6478 99.2182 89.7004 100 82.1654 100H47.8346C40.2996 100 38.3522 99.2182 36.4705 98.2118C34.439 97.1254 32.8746 95.561 31.7882 93.5295C30.7818 91.6478 30 89.7004 30 82.1654V80.9787C30 80.433 30.4375 79.9888 30.9826 79.9657C31.1969 79.9566 31.4142 79.9459 31.6333 79.9338C36.1281 79.6853 39.6414 75.4449 39.8599 70.1915C39.8711 69.9219 39.8819 69.6699 39.8921 69.4308L39.8926 69.4187C39.9571 67.9088 40 66.9053 40 65.1412C40 63.353 39.9607 62.4897 39.9007 61.1733C39.883 60.785 39.8635 60.3573 39.8427 59.8547C39.6245 54.5809 36.1075 50.3105 31.5952 50.0641C31.389 50.0529 31.1845 50.0429 30.9826 50.0343C30.4375 50.0112 30 49.567 30 49.0213V47.8346C30 40.2996 30.7818 38.3522 31.7882 36.4705C32.8746 34.439 34.439 32.8746 36.4705 31.7882C38.3522 30.7818 40.2996 30 47.8346 30ZM61.911 42.6752C53.0083 43.0671 46.2855 50.3526 45.8511 59.0036C45.6751 62.5098 45.5334 65.7227 45.5334 68.7332C45.5334 71.5469 45.6571 74.3447 45.8163 77.4771C46.2547 86.1063 52.9801 93.3241 61.832 93.721C62.9213 93.7698 63.9965 93.7998 65.0001 93.7998C66.0349 93.7998 67.1461 93.7679 68.2708 93.7163C77.0583 93.3132 83.7808 86.1796 84.2051 77.5737C84.3543 74.5484 84.4668 71.7915 84.4668 68.7332C84.4668 65.3292 84.3422 62.201 84.1805 58.8766C83.7613 50.2568 77.0418 43.0814 68.2229 42.6812C67.1147 42.6309 66.0203 42.5999 65.0001 42.5999C64.0206 42.5999 62.9731 42.6284 61.911 42.6752Z" fill="white"/>
<path d="M298.412 39H304.272V80.0951H298.412V39Z" fill="white"/>
<path d="M194.72 39.2377H188.394V45.4714H194.72V39.2377Z" fill="white"/>
<path d="M251.893 63.1031C254.664 63.5784 256.787 64.4102 258.2 65.7081C259.64 67.0883 260.36 68.9438 260.369 71.3112C260.369 72.7645 260.068 74.099 259.585 75.3055V75.3238C259.029 76.5669 258.164 77.5449 257.015 78.395C255.867 79.245 254.418 79.9032 252.631 80.3236C250.836 80.808 248.639 80.9817 246.124 80.9817C244.182 80.9817 242.341 80.7989 240.683 80.4424C239.015 80.0768 237.511 79.4827 236.244 78.6326C234.904 77.7734 233.874 76.6857 233.09 75.2873C232.297 73.9436 231.824 72.2527 231.641 70.2235L231.605 69.8305H237.411L237.438 70.1595C237.556 71.3478 237.839 72.2709 238.313 72.9656L238.322 72.9747C238.805 73.7334 239.461 74.2818 240.236 74.7297C241.011 75.1776 241.849 75.4518 242.861 75.6255C243.882 75.7991 244.966 75.854 246.124 75.854C247.865 75.854 249.232 75.7351 250.371 75.5066C251.456 75.2781 252.294 74.9948 252.941 74.6109C253.579 74.2453 253.998 73.77 254.254 73.2581C254.472 72.7097 254.627 72.0516 254.627 71.3569C254.627 70.3058 254.217 69.6111 253.515 69.1541C252.75 68.6605 251.756 68.3223 250.499 68.0938H250.489L241.339 66.6313C238.787 66.22 236.727 65.3791 235.26 64.0263C233.774 62.6553 233.045 60.7266 233.045 58.3136C233.045 57.0979 233.282 55.8822 233.774 54.7763C234.275 53.652 235.077 52.7288 236.162 51.8879C237.265 51.0287 238.65 50.4254 240.309 49.9501C241.986 49.4748 243.945 49.2372 246.242 49.2372C248.074 49.2372 249.797 49.4108 251.456 49.7673C253.069 50.1238 254.509 50.7271 255.712 51.5131L255.721 51.5223C256.933 52.3723 257.963 53.46 258.747 54.7945C259.54 56.1382 260.014 57.8383 260.251 59.7943L260.296 60.2056H254.418L254.381 59.8766C254.272 58.7615 253.944 57.884 253.506 57.171C253.014 56.4581 252.413 55.9097 251.702 55.4709C250.927 55.0322 250.098 54.758 249.204 54.5843C248.211 54.4655 247.245 54.3558 246.224 54.3558C244.665 54.3558 243.417 54.4655 242.46 54.694C241.43 54.9225 240.655 55.2058 240.117 55.5258C239.598 55.8365 239.242 56.2479 239.042 56.7049C238.832 57.1802 238.723 57.7195 238.723 58.3136C238.723 59.4561 239.088 60.1965 239.826 60.6352H239.835L239.844 60.6444C240.655 61.1837 241.758 61.531 243.198 61.7595L251.893 63.1031Z" fill="white"/>
<path d="M159.566 50.1146L169.264 71.6951L178.569 50.1146H184.931L170.895 80.0951H167.532L153.141 50.1146H159.566Z" fill="white"/>
<path fill-rule="evenodd" clip-rule="evenodd" d="M278.98 49.2372C283.164 49.2372 286.518 50.0598 288.933 51.7599C291.394 53.4875 292.652 56.3667 292.67 60.1874V80.1225H286.81V75.2873C285.834 77.2342 284.349 78.6875 282.371 79.6198C280.329 80.5795 278.051 81 275.563 81C273.922 81 272.427 80.8812 271.042 80.5156C269.666 80.1591 268.454 79.6107 267.469 78.8154C266.421 78.0751 265.628 77.0331 265.081 75.8174C264.462 74.5743 264.225 73.0479 264.225 71.3295C264.225 70.3058 264.343 69.2089 264.708 68.1121C265.072 67.0061 265.692 65.9641 266.667 65.0409C267.588 64.1086 268.864 63.3865 270.468 62.7924H270.477C272.099 62.2439 274.186 61.9514 276.72 61.9514C277.303 61.9514 277.85 61.9606 278.361 61.9789H278.443C278.926 61.9971 279.372 62.0063 279.81 62.0063C280.284 62.0063 280.73 62.0154 281.15 62.0337H281.186C281.329 62.0369 281.47 62.0412 281.608 62.0455C281.865 62.0534 282.116 62.0611 282.371 62.0611H282.407C283.164 62.1251 283.911 62.18 284.65 62.18H284.686L284.912 62.1959C285.501 62.2376 286.122 62.2815 286.8 62.2896V60.2056C286.8 58.0485 286.181 56.6043 285.023 55.7634C283.829 54.8951 281.888 54.3741 278.999 54.3741C277.741 54.3741 276.593 54.4838 275.672 54.6026C274.724 54.7671 273.959 55.0505 273.311 55.4801C272.664 55.9097 272.181 56.4489 271.798 57.1619L271.78 57.1802C271.343 57.884 271.069 58.7706 270.896 59.9131L270.851 60.2239H265.163L265.209 59.8126C265.446 57.8474 265.92 56.1656 266.649 54.822C267.369 53.4875 268.28 52.3998 269.438 51.5406L269.447 51.5314C270.595 50.7362 271.981 50.1329 273.594 49.7765C275.143 49.4108 276.975 49.2372 278.98 49.2372ZM271.698 74.8485C272.837 75.5066 274.679 75.854 277.231 75.854C278.388 75.854 279.482 75.7991 280.63 75.598C281.76 75.4244 282.772 75.0862 283.674 74.6383C284.54 74.2087 285.251 73.5506 285.807 72.7188C286.336 71.9145 286.682 70.8176 286.791 69.4557V66.7867C285.288 66.7319 283.847 66.677 282.544 66.6222C281.842 66.6222 281.168 66.613 280.53 66.5948H280.448C280.23 66.5915 280.018 66.5871 279.809 66.5828C279.431 66.5749 279.065 66.5673 278.707 66.5673C276.747 66.5673 275.143 66.741 274.004 66.9695C272.856 67.262 271.99 67.6002 271.47 68.0115L271.452 68.0298C270.86 68.4503 270.504 68.9713 270.358 69.474L270.34 69.5105C270.131 70.0315 270.076 70.6257 270.076 71.2472C270.076 73.1027 270.632 74.2361 271.698 74.8485Z" fill="white"/>
<path d="M194.492 50.1146H188.631V80.0951H194.492V50.1146Z" fill="white"/>
<path d="M369.84 65.7081C368.427 64.4102 366.304 63.5784 363.533 63.1031L354.838 61.7595C353.398 61.531 352.295 61.1837 351.484 60.6444L351.475 60.6352H351.466C350.727 60.1965 350.363 59.4561 350.363 58.3136C350.363 57.7195 350.472 57.1802 350.682 56.7049C350.882 56.2479 351.238 55.8365 351.757 55.5258C352.295 55.2058 353.07 54.9225 354.1 54.694C355.057 54.4655 356.305 54.3558 357.864 54.3558C358.885 54.3558 359.851 54.4655 360.844 54.5843C361.737 54.758 362.567 55.0322 363.342 55.4709C364.052 55.9097 364.654 56.4581 365.146 57.171C365.584 57.884 365.912 58.7615 366.021 59.8766L366.058 60.2056H371.936L371.891 59.7943C371.654 57.8383 371.18 56.1382 370.387 54.7945C369.603 53.46 368.573 52.3723 367.361 51.5223L367.352 51.5131C366.149 50.7271 364.709 50.1238 363.095 49.7673C361.437 49.4108 359.714 49.2372 357.882 49.2372C355.585 49.2372 353.626 49.4748 351.949 49.9501C350.29 50.4254 348.905 51.0287 347.802 51.8879C346.717 52.7288 345.915 53.652 345.414 54.7763C344.922 55.8822 344.685 57.0979 344.685 58.3136C344.685 60.7266 345.414 62.6553 346.899 64.0263C348.367 65.3791 350.427 66.22 352.979 66.6313L362.129 68.0938H362.138C363.396 68.3223 364.39 68.6605 365.155 69.1541C365.857 69.6111 366.267 70.3058 366.267 71.3569C366.267 72.0607 366.112 72.7097 365.893 73.2581C365.638 73.77 365.219 74.2453 364.581 74.6109C363.934 74.9948 363.095 75.2781 362.011 75.5066C360.872 75.7351 359.504 75.854 357.764 75.854C356.606 75.854 355.522 75.7991 354.501 75.6255C353.489 75.4518 352.651 75.1776 351.876 74.7297C351.101 74.2818 350.445 73.7334 349.962 72.9747L349.944 72.9656C349.47 72.2709 349.187 71.3478 349.069 70.1595L349.041 69.8305H343.236L343.272 70.2235C343.454 72.2527 343.928 73.9436 344.721 75.2873C345.505 76.6857 346.535 77.7734 347.875 78.6235C349.142 79.4736 350.645 80.0677 352.313 80.4333C353.972 80.7898 355.813 80.9726 357.754 80.9726C360.27 80.9726 362.467 80.7989 364.262 80.3145C366.048 79.894 367.498 79.2359 368.646 78.3858C369.794 77.5358 370.66 76.5578 371.216 75.3147V75.2964C371.699 74.0899 372 72.7554 372 71.3021C372 68.9438 371.271 67.0883 369.84 65.7081Z" fill="white"/>
<path fill-rule="evenodd" clip-rule="evenodd" d="M332.973 73.3586C333.456 72.7097 333.784 71.8962 334.012 70.8176L334.076 70.5068H339.872L339.809 70.9273C339.517 72.7736 338.979 74.3458 338.123 75.6346C337.284 76.9691 336.254 78.0019 334.978 78.788C333.711 79.5741 332.271 80.1134 330.667 80.4698C328.999 80.8263 327.222 80.9451 325.281 80.9451C322.865 80.9451 320.733 80.7166 318.828 80.1773C316.914 79.702 315.228 78.7972 313.897 77.5815C312.566 76.3567 311.545 74.7205 310.825 72.6914C310.105 70.7079 309.75 68.2126 309.75 65.2602C309.75 62.2439 310.096 59.6846 310.816 57.6463C311.527 55.6171 312.548 53.9262 313.879 52.6465L313.888 52.6374C315.209 51.4309 316.841 50.526 318.755 49.9867H318.764C320.66 49.5114 322.792 49.2189 325.153 49.2189C329.646 49.2189 333.237 50.3523 335.89 52.6465C338.496 54.9682 339.8 58.4689 339.8 63.1031V67.39H315.601C315.638 69.0718 315.911 70.4703 316.33 71.5123C316.777 72.6274 317.442 73.514 318.263 74.1721C319.083 74.8394 320.076 75.2872 321.252 75.5066C322.455 75.7351 323.777 75.8539 325.271 75.8539C326.429 75.8539 327.459 75.7991 328.48 75.6254H328.498C329.437 75.5158 330.275 75.2324 331.059 74.8394L331.068 74.8302H331.077C331.825 74.5103 332.417 74.0259 332.973 73.3586ZM328.744 54.758C327.659 54.5294 326.456 54.3558 325.153 54.3558C323.768 54.3558 322.574 54.4746 321.434 54.7122C320.322 54.9316 319.32 55.3795 318.491 55.9919C317.67 56.5952 317.005 57.4269 316.504 58.5421C316.039 59.5749 315.756 60.8637 315.674 62.5273H333.875C333.848 60.9734 333.62 59.7303 333.21 58.6975C332.763 57.5732 332.207 56.7506 331.451 56.0924C330.685 55.48 329.801 55.0413 328.744 54.758Z" fill="white"/>
<path fill-rule="evenodd" clip-rule="evenodd" d="M223.994 51.7599C221.579 50.0598 218.225 49.2372 214.042 49.2372C212.037 49.2372 210.205 49.4108 208.655 49.7765C207.042 50.1329 205.657 50.7362 204.508 51.5314L204.499 51.5406C203.342 52.3998 202.43 53.4875 201.71 54.822C200.981 56.1656 200.507 57.8474 200.27 59.8126L200.225 60.2239H205.912L205.957 59.9131C206.131 58.7706 206.413 57.884 206.842 57.1802L206.86 57.1619C207.243 56.4489 207.726 55.9097 208.373 55.4801C209.02 55.0505 209.776 54.7671 210.733 54.6026C211.654 54.4838 212.802 54.3741 214.06 54.3741C216.949 54.3741 218.891 54.8951 220.084 55.7634C221.242 56.6043 221.862 58.0485 221.862 60.2056V62.2896C221.184 62.2815 220.563 62.2376 219.974 62.1959L219.747 62.18H219.711C218.973 62.18 218.225 62.1251 217.469 62.0611H217.432C217.177 62.0611 216.926 62.0534 216.669 62.0455C216.531 62.0412 216.391 62.0369 216.247 62.0337H216.211C215.792 62.0154 215.345 62.0063 214.871 62.0063C214.434 62.0063 213.987 61.9971 213.504 61.9789H213.422C212.912 61.9606 212.365 61.9514 211.781 61.9514C209.248 61.9514 207.161 62.2439 205.538 62.7924H205.529C203.925 63.3865 202.649 64.1086 201.728 65.0409C200.753 65.9641 200.133 67.0061 199.769 68.1121C199.404 69.2089 199.286 70.3058 199.286 71.3295C199.286 73.0479 199.523 74.5743 200.133 75.8174C200.68 77.0331 201.473 78.0751 202.521 78.8154C203.506 79.6107 204.718 80.1591 206.094 80.5156C207.48 80.8812 208.974 81 210.615 81C213.103 81 215.382 80.5795 217.423 79.6198C219.401 78.6875 220.887 77.2342 221.862 75.2873V80.1225H227.722V60.1874C227.713 56.3667 226.455 53.4875 223.994 51.7599ZM206.504 68.0298L206.513 68.0207C207.033 67.6093 207.89 67.2711 209.047 66.9787C210.186 66.7501 211.791 66.5765 213.75 66.5765C214.108 66.5765 214.474 66.5841 214.852 66.5919C215.061 66.5962 215.274 66.6007 215.491 66.6039H215.573C216.211 66.6222 216.885 66.6313 217.587 66.6313C218.891 66.6862 220.331 66.741 221.834 66.7958V69.4648C221.725 70.8268 221.379 71.9236 220.85 72.728C220.294 73.5597 219.583 74.2178 218.717 74.6474C217.815 75.0953 216.803 75.4335 215.673 75.6072C214.525 75.7808 213.44 75.8357 212.283 75.8357C209.731 75.8357 207.89 75.4884 206.75 74.8302C205.684 74.2178 205.128 73.0844 205.128 71.2289C205.128 70.6074 205.183 70.0133 205.392 69.4923L205.411 69.4557C205.566 68.9804 205.921 68.4594 206.504 68.0298Z" fill="white"/>
<path fill-rule="evenodd" clip-rule="evenodd" d="M137.774 49.2372C141.958 49.2372 145.312 50.0598 147.727 51.7599C150.179 53.4875 151.436 56.3667 151.436 60.1874V80.0951H145.576V75.2598C144.601 77.2067 143.124 78.6601 141.137 79.5924C139.096 80.5521 136.817 80.9726 134.329 80.9726C132.688 80.9726 131.194 80.8538 129.808 80.4881C128.432 80.1317 127.22 79.5832 126.236 78.788C125.187 78.0477 124.394 77.0057 123.848 75.79C123.237 74.5469 123 73.0204 123 71.3021C123 70.2783 123.118 69.1906 123.483 68.0938C123.848 66.9878 124.467 65.9458 125.443 65.0226C126.363 64.0903 127.639 63.3682 129.243 62.7741H129.252C130.875 62.2257 132.962 61.9332 135.496 61.9332C136.079 61.9332 136.626 61.9423 137.136 61.9606H137.218C137.701 61.9789 138.148 61.988 138.585 61.988C139.059 61.988 139.506 61.9972 139.925 62.0154H139.962C140.105 62.0186 140.245 62.0229 140.383 62.0272C140.641 62.0351 140.892 62.0429 141.146 62.0429H141.183C141.948 62.1068 142.696 62.1617 143.434 62.1617H143.471C143.545 62.1669 143.621 62.1722 143.697 62.1776C144.286 62.2193 144.907 62.2633 145.585 62.2714V60.1874C145.585 58.0302 144.965 56.586 143.808 55.7451C142.614 54.8768 140.672 54.3558 137.783 54.3558C136.525 54.3558 135.377 54.4655 134.457 54.5843C133.5 54.7488 132.743 55.0322 132.096 55.4618C131.449 55.8914 130.966 56.4307 130.583 57.1436L130.565 57.1619C130.136 57.8657 129.854 58.7523 129.681 59.8949L129.635 60.2056H123.948L123.993 59.8035C124.23 57.8383 124.704 56.1564 125.433 54.8128C126.154 53.4783 127.065 52.3906 128.222 51.5314L128.232 51.5223C129.38 50.7362 130.765 50.1329 132.388 49.7765C133.937 49.4108 135.769 49.2372 137.774 49.2372ZM130.237 68.0207L130.228 68.0298C129.644 68.4594 129.289 68.9804 129.134 69.4557L129.116 69.4923C128.906 70.0133 128.851 70.6074 128.851 71.2289C128.851 73.0844 129.407 74.2178 130.474 74.8302C131.613 75.4884 133.454 75.8357 136.006 75.8357C137.163 75.8357 138.248 75.7808 139.396 75.6072C140.527 75.4335 141.538 75.0953 142.441 74.6474C143.306 74.2178 144.026 73.5597 144.573 72.728C145.102 71.9236 145.439 70.8268 145.558 69.4648V66.7958C144.054 66.741 142.605 66.6862 141.31 66.6313C140.609 66.6313 139.934 66.6222 139.296 66.6039H139.214C138.997 66.6006 138.784 66.5962 138.575 66.5919C138.197 66.5841 137.831 66.5765 137.473 66.5765C135.514 66.5765 133.91 66.7501 132.77 66.9787C131.613 67.2711 130.756 67.6093 130.237 68.0207Z" fill="white"/>
</svg>
